<?xml version="1.0" encoding="utf-8"?>
<!-- Generator: Adobe Illustrator 21.1.0, SVG Export Plug-In . SVG Version: 6.00 Build 0)  -->
<svg version="1.1" id="Livello_1" xmlns="http://www.w3.org/2000/svg" xmlns:xlink="http://www.w3.org/1999/xlink" x="0px" y="0px"
	 viewBox="0 0 120 20" style="enable-background:new 0 0 120 20;" xml:space="preserve">
<style type="text/css">
	.st0{fill:none;stroke:#3251BF;stroke-width:2.5;stroke-miterlimit:10;}
	.st1{fill:none;}
	.st2{font-family:'Gilroy-Black';}
	.st3{font-size:8px;}
</style>
<g>
	<g>
		<path class="st0" d="M17.5,10c-0.5,4.4-2.6,6.1-5.9,6.1c-3.2,0-5.9-2.6-5.9-5.9"/>
		<path class="st0" d="M17.5,10.3c0.6-4.5,2.9-6,6.2-6c3.2,0,5.6,2.6,5.6,5.9"/>
		<path class="st0" d="M8.7,15.3c-2.8-1.6-3.8-5.2-2.2-8s5.1-4.1,8.6-1.2l-2.2,2.6"/>
		<path class="st0" d="M28.9,7.9c1.1,3-0.1,5.3-2.8,7.1"/>
	</g>
	<path class="st0" d="M28.1,13.2c-2.2,2.9-5,2.9-7.7,1.2"/>
	<line class="st0" x1="24.7" y1="12.4" x2="28.1" y2="17.6"/>
</g>
<rect x="36.4" y="6.4" class="st1" width="78.1" height="10.3"/>
<text transform="matrix(1 0 0 1 42.8125 12.0396)" class="st2 st3">equilibria.finance</text>
</svg>
