<?xml version="1.0" encoding="utf-8"?>
<!-- Generator: Adobe Illustrator 21.1.0, SVG Export Plug-In . SVG Version: 6.00 Build 0)  -->
<svg version="1.1" id="Livello_1" xmlns="http://www.w3.org/2000/svg" xmlns:xlink="http://www.w3.org/1999/xlink" x="0px" y="0px"
	 viewBox="0 0 120 20" style="enable-background:new 0 0 120 20;" xml:space="preserve">
<style type="text/css">
	.st0{fill:none;stroke:#3251BF;stroke-width:2.5;stroke-miterlimit:10;}
	.st1{fill:none;}
	.st2{font-family:'Gilroy-Black';}
	.st3{font-size:12px;}
	.st4{fill:#3251BF;}
</style>
<g>
	<g>
		<path class="st0" d="M17.5,10.2c-0.5,4.6-2.6,5.9-5.9,5.9c-3.2,0-5.9-2.6-5.9-5.9"/>
		<path class="st0" d="M17.5,10.3c0.6-4.5,2.9-6,6.2-6c3.2,0,5.6,2.6,5.6,5.9"/>
		<path class="st0" d="M5.7,10.5c0-1.4,0.2-2.2,0.8-3.2c1.7-2.7,4.7-4.6,8.2-1.7l-1.8,2.2"/>
		<path class="st0" d="M29.3,9.8c0,2-1,3-1.4,3.6"/>
	</g>
	<path class="st0" d="M28.1,13.2c-2.2,2.9-5.6,2.9-8.6,0.8"/>
</g>
<rect x="36.4" y="6.4" class="st1" width="78.1" height="10.3"/>
<text transform="matrix(1 0 0 1 39.3165 13.1503)" class="st2 st3">equilibria</text>
<path class="st4" d="M32.2,14.1l-1.1,1.8C31,16,30.9,16.1,30.8,16l-2.6-1.6c-0.1-0.1-0.1-0.2-0.1-0.3l1.1-1.8
	c0.1-0.1,0.2-0.1,0.3-0.1l2.6,1.6C32.3,13.9,32.3,14,32.2,14.1z"/>
<path class="st4" d="M20.5,13.5l-1.1,1.7c-0.1,0.1-0.2,0.1-0.3,0.1l-0.3-0.2c-0.1-0.1-0.1-0.2-0.1-0.3l1.1-1.7
	C19.9,13,20,13,20.1,13l0.3,0.2C20.6,13.2,20.6,13.3,20.5,13.5z"/>
<path class="st4" d="M16.5,5.7L14,8.6c0,0.1-0.1,0.1-0.2,0l-0.2-0.1c-0.1,0-0.1-0.1,0-0.2l2.5-2.9c0-0.1,0.1-0.1,0.2,0l0.2,0.1
	C16.5,5.5,16.5,5.6,16.5,5.7z"/>
<path class="st4" d="M14.7,4.9l-2.2,2.5h-0.1L11.9,7V6.9L14,4.3h0.1l0.5,0.4C14.7,4.8,14.7,4.8,14.7,4.9z"/>
</svg>
